<svg width="761" height="84" viewBox="0 0 761 84" fill="none" xmlns="http://www.w3.org/2000/svg">
<path d="M6.85645 72H18.9215L38.9665 35.9L32.9815 24.975L6.85645 72ZM47.9915 19.56L41.9115 8.73L35.9265 19.56L41.9115 30.39L64.9965 72H76.9665L47.9915 19.56ZM81.004 72H90.124V37.23L81.004 28.11V72ZM122.044 8.92V49.77L81.004 8.825V21.65L90.124 30.77L122.044 62.69L131.069 71.715V8.92H122.044ZM195.768 36.185C193.583 20.89 180.568 9.10999 164.798 8.92H139.243V18.04H165.368C170.118 18.325 174.488 19.94 178.003 22.6C182.373 25.925 185.413 30.675 186.553 36.185C186.838 37.61 187.028 39.13 187.028 40.65C187.028 42.17 186.838 43.785 186.458 45.305C184.558 54.425 177.053 61.55 167.648 62.975H148.363V22.6H139.243V72H168.313C182.468 70.29 193.678 59.27 195.768 45.305C195.958 43.785 196.053 42.17 196.053 40.65C196.053 39.13 195.958 37.61 195.768 36.185ZM243.11 39.415L241.97 37.705C242.065 37.61 242.16 37.61 242.16 37.515C242.255 37.515 242.255 37.515 242.255 37.515C242.445 37.42 242.635 37.325 242.73 37.135H242.825C242.92 37.04 243.11 36.945 243.3 36.85C243.68 36.565 244.06 36.28 244.345 35.995C244.44 35.995 244.535 35.9 244.63 35.805C244.82 35.71 244.915 35.615 245.01 35.52C245.2 35.33 245.39 35.14 245.58 35.045L245.675 34.95C245.77 34.855 245.96 34.76 246.055 34.57C246.53 34.285 246.91 33.905 247.29 33.43C251.565 29.25 254.605 23.93 255.935 17.85C256.41 15.665 256.695 13.385 256.695 11.01C256.695 10.25 256.695 9.49 256.6 8.73H204.255V72H213.375V42.55H225.06C225.345 42.55 225.535 42.55 225.725 42.55C225.82 42.55 226.01 42.55 226.105 42.55C226.295 42.55 226.485 42.55 226.58 42.55C226.675 42.55 226.675 42.55 226.77 42.55C226.96 42.55 227.245 42.55 227.53 42.455C227.815 42.455 228.005 42.455 228.29 42.455C228.48 42.36 228.765 42.36 228.955 42.36C229.05 42.36 229.145 42.36 229.24 42.265C229.43 42.265 229.62 42.265 229.81 42.265C229.905 42.17 230 42.17 230.095 42.17C230.19 42.17 230.38 42.17 230.57 42.075C231.045 41.98 231.615 41.885 232.185 41.79C232.375 41.695 232.66 41.695 232.85 41.6C232.945 41.6 232.945 41.6 233.04 41.6C233.23 41.505 233.325 41.505 233.515 41.41C233.61 41.41 233.61 41.41 233.61 41.41L234.18 42.265L252.325 72H262.965L243.11 39.415ZM233.99 31.625C231.235 32.86 228.195 33.43 225.06 33.43H213.375V17.85H246.53C245.39 21.27 243.49 24.405 240.925 26.97C238.835 28.965 236.555 30.58 233.99 31.625ZM276.092 42.74H316.657V33.62H276.092V22.6H266.972V72H322.832V62.975H276.092V42.74ZM266.972 8.92V18.04H322.832V8.92H266.972ZM331.032 70.67V72H387.367V62.975H336.637L331.032 70.67ZM339.962 58.415H351.267L380.717 18.04L387.367 8.92H331.032V18.04H369.412L339.962 58.415ZM476.527 72V8.825H485.647V72H476.527ZM485.362 9.10999H476.812V71.715H485.362V9.10999ZM476.527 8.825V72H485.647V8.825H476.527ZM523.115 72V22.6H513.995V72H523.115ZM547.245 18.04V8.92H490.91V18.04H547.245ZM577.842 17.945C590.192 17.945 600.262 28.11 600.262 40.46C600.262 52.905 590.192 62.975 577.842 62.975C565.397 62.975 555.327 52.905 555.327 40.46C555.327 28.11 565.397 17.945 577.842 17.945ZM546.207 40.46C546.207 57.94 560.362 72 577.842 72C595.227 72 609.382 57.94 609.382 40.46C609.382 22.98 595.227 8.92 577.842 8.92C560.362 8.92 546.207 22.98 546.207 40.46ZM653.44 39.415L652.3 37.705C652.395 37.61 652.49 37.61 652.49 37.515C652.585 37.515 652.585 37.515 652.585 37.515C652.775 37.42 652.965 37.325 653.06 37.135H653.155C653.25 37.04 653.44 36.945 653.63 36.85C654.01 36.565 654.39 36.28 654.675 35.995C654.77 35.995 654.865 35.9 654.96 35.805C655.15 35.71 655.245 35.615 655.34 35.52C655.53 35.33 655.72 35.14 655.91 35.045L656.005 34.95C656.1 34.855 656.29 34.76 656.385 34.57C656.86 34.285 657.24 33.905 657.62 33.43C661.895 29.25 664.935 23.93 666.265 17.85C666.74 15.665 667.025 13.385 667.025 11.01C667.025 10.25 667.025 9.49 666.93 8.73H614.585V72H623.705V42.55H635.39C635.675 42.55 635.865 42.55 636.055 42.55C636.15 42.55 636.34 42.55 636.435 42.55C636.625 42.55 636.815 42.55 636.91 42.55C637.005 42.55 637.005 42.55 637.1 42.55C637.29 42.55 637.575 42.55 637.86 42.455C638.145 42.455 638.335 42.455 638.62 42.455C638.81 42.36 639.095 42.36 639.285 42.36C639.38 42.36 639.475 42.36 639.57 42.265C639.76 42.265 639.95 42.265 640.14 42.265C640.235 42.17 640.33 42.17 640.425 42.17C640.52 42.17 640.71 42.17 640.9 42.075C641.375 41.98 641.945 41.885 642.515 41.79C642.705 41.695 642.99 41.695 643.18 41.6C643.275 41.6 643.275 41.6 643.37 41.6C643.56 41.505 643.655 41.505 643.845 41.41C643.94 41.41 643.94 41.41 643.94 41.41L644.51 42.265L662.655 72H673.295L653.44 39.415ZM644.32 31.625C641.565 32.86 638.525 33.43 635.39 33.43H623.705V17.85H656.86C655.72 21.27 653.82 24.405 651.255 26.97C649.165 28.965 646.885 30.58 644.32 31.625ZM678.602 72V8.825H687.722V72H678.602ZM687.437 9.10999H678.887V71.715H687.437V9.10999ZM678.602 8.825V72H687.722V8.825H678.602ZM724.621 17.945C736.971 17.945 747.041 28.11 747.041 40.46C747.041 52.905 736.971 62.975 724.621 62.975C712.176 62.975 702.106 52.905 702.106 40.46C702.106 28.11 712.176 17.945 724.621 17.945ZM692.986 40.46C692.986 57.94 707.141 72 724.621 72C742.006 72 756.161 57.94 756.161 40.46C756.161 22.98 742.006 8.92 724.621 8.92C707.141 8.92 692.986 22.98 692.986 40.46Z" fill="url(#paint0_linear_3_46)"/>
<path d="M406.491 8.96799H394.062L420.877 55.9223L427.042 45.1086L406.491 8.96799ZM453.955 8.96799L430.174 50.5154L424.009 61.3291L430.174 72.1428L436.339 61.3291L466.286 8.96799H453.955Z" fill="url(#paint1_linear_3_46)"/>
<path d="M393.845 72.1428H406.274L426.923 36.0971L420.758 25.1886L393.845 72.1428ZM436.22 19.7817L429.957 8.96799L423.791 19.7817L429.957 30.5954L453.738 72.1428H466.069L436.22 19.7817Z" fill="url(#paint2_linear_3_46)"/>
<defs>
<linearGradient id="paint0_linear_3_46" x1="416.405" y1="-10" x2="416.405" y2="83" gradientUnits="userSpaceOnUse">
<stop stop-color="#001233"/>
<stop offset="1" stop-color="#023E7D"/>
</linearGradient>
<linearGradient id="paint1_linear_3_46" x1="430.223" y1="8.50951" x2="430.223" y2="72.1428" gradientUnits="userSpaceOnUse">
<stop stop-color="#002855"/>
<stop offset="1" stop-color="#1D1D1D"/>
</linearGradient>
<linearGradient id="paint2_linear_3_46" x1="429" y1="8.50951" x2="429" y2="72.1428" gradientUnits="userSpaceOnUse">
<stop stop-color="#001233"/>
<stop offset="1" stop-color="#023E7D"/>
</linearGradient>
</defs>
</svg>
